# xmcd CD database file
#
# Track frame offsets:
#	150
#	13713
#	31430
#	49938
#	64633
#	76655
#	94855
#	109961
#	135847
#	152231
#	166903
#	180776
#	196815
#	212240
#
# Disc length: 3075 seconds
#
# Revision: 4
# Processed by: cddbd v1.5.2PL0 Copyright (c) Steve Scherf et al.
# Submitted via: jetAudio 7
#
DISCID=ab0c010e
DTITLE=Bles Bridges - Country My Way
DYEAR=1999
DGENRE=Country
TTITLE0=Devil Woman
TTITLE1=Two Pina Coladas
TTITLE2=Suspicious Minds
TTITLE3=Home
TTITLE4=I Have Loved You Girl
TTITLE5=I Need More Of You
TTITLE6=Delilah
TTITLE7=Country Medley
TTITLE8=Let's Dance Maria
TTITLE9=Is The Magic Still There
TTITLE10=Gren Green Grass Of Home
TTITLE11=I Cross My Heart
TTITLE12=I Just Wanna Dance With You
TTITLE13=You
EXTD=
EXTT0=
EXTT1=
EXTT2=
EXTT3=
EXTT4=
EXTT5=
EXTT6=
EXTT7=
EXTT8=
EXTT9=
EXTT10=
EXTT11=
EXTT12=
EXTT13=
PLAYORDER=
